<?xml version="1.0" standalone="no"?>
<!DOCTYPE svg PUBLIC "-//W3C//DTD SVG 20010904//EN"
 "http://www.w3.org/TR/2001/REC-SVG-20010904/DTD/svg10.dtd">
<svg version="1.0" xmlns="http://www.w3.org/2000/svg"
 width="282.000000pt" height="275.000000pt" viewBox="0 0 282.000000 275.000000"
 preserveAspectRatio="xMidYMid meet">

<g transform="translate(0.000000,275.000000) scale(0.100000,-0.100000)"
fill="#000000" stroke="none">
<path d="M0 1375 l0 -1375 1410 0 1410 0 0 1375 0 1375 -1410 0 -1410 0 0
-1375z m1765 1096 c74 -33 117 -100 215 -335 23 -55 68 -153 101 -219 33 -65
58 -121 56 -124 -3 -2 -39 62 -81 144 -42 81 -94 168 -116 193 -22 25 -48 63
-58 85 -42 98 -79 161 -105 179 -18 14 -48 21 -93 24 -78 5 -135 -14 -195 -64
-41 -34 -66 -37 -54 -6 5 13 2 12 -15 -3 -11 -10 -17 -22 -13 -25 5 -4 40 -17
78 -29 84 -25 117 -47 95 -61 -32 -20 -76 -21 -125 -3 -39 14 -50 24 -51 41
-1 18 3 21 19 16 13 -4 17 -2 13 5 -4 6 -13 11 -21 11 -24 0 -27 20 -9 48 l17
27 -21 -19 c-12 -11 -22 -14 -22 -9 0 13 79 86 111 104 78 41 206 51 274 20z
m-49 -106 c22 -17 43 -52 71 -117 70 -163 77 -237 34 -343 l-20 -50 -1 75 c-1
128 -19 300 -36 331 -20 40 -67 58 -163 66 -68 5 -78 8 -74 23 4 16 25 31 63
44 28 9 95 -6 126 -29z m-776 -134 c0 -6 -5 -13 -11 -17 -8 -5 -8 -8 0 -14 8
-5 9 -14 2 -33 -12 -30 -59 -47 -133 -47 -41 0 -48 3 -48 19 0 11 -2 26 -5 34
-5 10 17 20 87 40 109 30 108 30 108 18z m746 -6 c13 -34 -5 -62 -53 -82 -67
-28 -117 -37 -110 -19 4 11 -2 12 -29 6 -19 -4 -34 -4 -34 0 0 5 -8 10 -17 13
-21 5 -5 12 132 63 105 39 104 38 111 19z m-656 -96 c0 -9 -18 -33 -40 -53
-33 -30 -48 -36 -83 -36 -78 0 -76 13 14 79 76 56 85 60 96 44 7 -9 13 -24 13
-34z m387 -8 c81 -21 136 -49 141 -72 2 -10 -7 -15 -26 -17 -37 -3 -223 35
-236 48 -7 7 -6 10 2 10 7 0 12 11 12 25 0 31 10 31 107 6z m-842 -68 c-7 -27
-15 -105 -19 -175 -4 -70 -12 -142 -18 -160 -6 -18 -54 -105 -106 -193 -127
-215 -125 -211 -129 -199 -2 7 22 55 53 108 76 130 85 159 138 410 47 223 57
256 80 256 11 0 11 -9 1 -47z m271 32 c-19 -15 -46 -20 -46 -10 0 6 40 24 55
24 6 0 1 -6 -9 -14z m824 -27 c0 -7 3 -22 6 -34 4 -16 -4 -27 -35 -48 -22 -16
-55 -31 -73 -35 l-32 -7 47 -27 47 -28 46 33 c44 32 46 32 60 13 8 -10 14 -24
14 -31 0 -13 -41 -49 -63 -57 -9 -3 -8 -8 2 -21 8 -9 11 -19 8 -22 -9 -9 -84
15 -98 33 -25 29 -100 56 -157 55 -71 -1 -118 16 -52 18 30 1 39 4 27 9 -10 4
-18 11 -17 16 1 4 -11 14 -27 22 -25 12 -21 13 47 9 41 -2 82 -6 90 -8 8 -3
12 -3 8 -1 -20 11 -2 32 65 75 78 51 87 54 87 36z m-855 -22 c143 -28 178 -38
165 -46 -9 -6 -6 -10 9 -15 22 -7 22 -8 5 -26 -15 -17 -26 -19 -73 -14 -80 10
-178 33 -209 50 l-27 14 28 1 c16 0 26 4 22 9 -3 5 0 13 6 17 8 4 7 9 -2 15
-19 12 -5 11 76 -5z m276 -83 c12 -32 -8 -64 -62 -101 -26 -18 -42 -22 -69
-17 -19 4 -38 10 -43 14 -7 7 140 131 156 131 4 0 12 -12 18 -27z m-255 -28
c-10 -8 -24 -11 -30 -8 -6 4 0 10 14 14 36 10 37 10 16 -6z m64 -95 c85 -15
151 -29 145 -29 -5 -1 -4 -5 3 -9 9 -6 4 -15 -18 -31 -29 -21 -35 -21 -113
-11 -45 6 -115 17 -154 26 -40 8 -81 14 -91 12 -22 -4 -52 18 -52 38 0 41 72
42 280 4z m926 -24 c19 -14 19 -15 -5 -40 -14 -14 -31 -26 -40 -26 -9 0 -2
-11 19 -30 25 -20 30 -29 18 -30 -9 0 -18 -5 -20 -11 -2 -6 -32 1 -78 19 -41
17 -77 28 -79 26 -2 -2 4 -13 14 -24 10 -11 13 -20 7 -20 -6 0 -19 12 -29 26
-17 27 -18 27 -113 21 -86 -6 -92 -5 -64 7 31 14 54 36 36 36 -5 0 -9 7 -9 15
0 34 134 26 235 -15 35 -15 41 -16 25 -4 -30 21 -29 30 5 48 34 19 53 20 78 2z
m-654 -26 l17 -30 -44 -26 c-35 -20 -52 -24 -77 -19 -46 10 -51 15 -36 33 16
19 98 72 112 72 6 0 19 -14 28 -30z m789 -60 c10 -6 19 -16 19 -22 0 -23 -44
-58 -74 -59 -25 -1 -27 -3 -8 -6 22 -4 21 -6 -15 -25 -29 -16 -54 -21 -108
-19 -40 1 -93 -5 -120 -14 -60 -18 -62 -18 -48 -4 8 8 9 19 2 37 -17 45 19 52
211 38 30 -2 45 -2 33 1 -33 7 -28 17 24 52 52 34 56 35 84 21z m-896 -27 c80
-20 95 -28 65 -38 l-23 -7 24 -15 24 -14 -30 6 c-16 3 -76 9 -132 12 -95 5
-108 4 -182 -23 -67 -24 -82 -26 -95 -15 -21 18 -20 65 1 82 15 13 16 11 9
-13 -8 -33 8 -38 24 -8 30 56 165 70 315 33z m217 -84 c-35 -31 -55 -35 -97
-19 -24 9 -25 12 -14 27 8 9 32 29 53 45 l40 29 25 -27 25 -27 -32 -28z m-125
35 c-3 -3 -12 -4 -19 -1 -8 3 -5 6 6 6 11 1 17 -2 13 -5z m-127 -24 c0 -5 -9
-10 -20 -10 -11 0 -20 5 -20 10 0 6 9 10 20 10 11 0 20 -4 20 -10z m1058 -16
c12 -8 22 -19 22 -23 0 -5 -30 -16 -67 -24 -99 -22 -176 -54 -203 -82 -24 -26
-73 -34 -85 -15 -9 15 -25 2 -25 -21 0 -11 10 -24 23 -29 20 -9 19 -9 -8 -7
-49 3 -46 42 8 98 51 53 111 85 199 104 84 18 109 18 136 -1z m-947 -15 c29
-6 71 -20 93 -30 23 -11 30 -16 16 -13 -39 11 -53 10 -57 -3 -3 -7 11 -19 29
-28 25 -12 27 -14 8 -10 -178 35 -226 29 -311 -35 -59 -44 -93 -50 -109 -21
-24 45 25 97 120 126 30 9 60 18 65 20 23 8 97 4 146 -6z m279 -49 c14 -26 6
-39 -37 -57 -35 -14 -93 -10 -93 7 0 15 75 69 97 70 12 0 27 -9 33 -20z m-339
-68 c-7 -2 -23 6 -35 18 l-21 22 35 -18 c21 -10 30 -19 21 -22z m82 29 c17 -6
17 -8 3 -20 -13 -11 -20 -11 -41 3 -14 9 -25 19 -25 21 0 7 42 5 63 -4z m232
-59 l20 -13 -20 2 c-44 3 -76 -1 -71 -10 3 -5 -4 -11 -16 -14 -12 -4 -20 -9
-16 -12 3 -3 56 5 117 19 90 21 116 23 136 14 40 -18 24 -32 -61 -51 -157 -36
-181 -45 -229 -92 -29 -29 -54 -45 -70 -45 -14 0 -25 -4 -25 -10 0 -16 52 -11
72 7 15 14 18 14 18 1 0 -46 -101 -72 -115 -29 -13 42 28 103 105 153 l45 30
-70 -7 c-78 -8 -123 -23 -144 -49 -8 -10 -28 -24 -44 -32 -26 -14 -31 -14 -54
1 -50 33 -4 103 88 136 45 16 77 19 184 17 83 -2 137 -8 150 -16z m1045 -48
c81 -18 142 -44 177 -77 18 -16 20 -24 12 -39 -6 -11 -9 -28 -6 -38 3 -11 -1
-21 -9 -24 -8 -3 -14 -1 -14 4 0 6 -4 10 -10 10 -5 0 -10 -9 -10 -20 0 -22
-20 -26 -38 -8 -7 7 -13 8 -13 3 -1 -6 -2 -17 -3 -25 -2 -22 -36 -25 -36 -3
-1 15 -5 13 -23 -9 -28 -34 -53 -39 -37 -7 7 11 10 22 8 24 -6 6 -44 -30 -51
-47 -10 -28 -28 -22 -21 7 6 26 -10 36 -19 11 -3 -7 -23 -16 -44 -19 -21 -4
-53 -9 -71 -13 -31 -6 -34 -5 -30 17 2 20 15 28 68 46 36 13 50 20 31 17 -55
-10 -274 -7 -306 4 -24 8 -2 10 98 11 198 1 421 55 441 106 5 13 2 13 -18 0
-22 -15 -254 -51 -263 -41 -3 3 10 9 28 15 29 9 26 10 -26 5 -58 -5 -59 -4
-30 10 29 14 28 14 -35 10 l-65 -4 55 19 55 19 -60 -5 c-76 -6 -113 -20 -121
-46 -5 -17 -8 -18 -15 -4 -14 24 0 46 45 70 39 20 40 22 16 26 -20 4 -16 7 20
12 69 11 236 2 320 -17z m-2270 -107 c15 -13 69 -38 121 -56 152 -54 309 -134
392 -201 83 -67 121 -86 217 -110 l65 -16 3 -52 c2 -29 0 -52 -3 -52 -17 0
-123 34 -150 48 -60 31 -102 73 -129 132 -24 52 -36 65 -89 97 -34 20 -73 43
-86 52 -22 14 -23 14 -17 -6 7 -21 6 -21 -51 -8 -126 30 -236 79 -275 121 -18
21 -41 74 -32 74 3 0 18 -10 34 -23z m2490 -53 c0 -13 -4 -24 -8 -24 -5 0 -9
13 -9 30 0 16 4 27 9 24 4 -3 8 -16 8 -30z m-2370 -94 c30 -12 93 -32 140 -44
82 -22 85 -24 88 -54 3 -31 2 -32 -30 -26 -108 20 -254 77 -296 117 -25 23
-52 68 -52 86 0 6 21 -4 48 -23 26 -19 72 -44 102 -56z m1604 37 c113 -56 129
-76 90 -112 -53 -50 -283 -107 -476 -119 -112 -6 -116 9 -5 18 121 10 262 35
351 63 74 23 131 51 123 59 -2 2 -41 -3 -88 -11 -46 -8 -106 -15 -134 -14
l-50 1 35 14 c34 14 34 14 -30 9 l-65 -5 50 16 c59 20 43 31 -20 15 -24 -6
-53 -11 -64 -11 -38 0 -22 17 27 27 l47 10 -65 1 c-36 1 -75 -4 -88 -11 -13
-7 -41 -40 -63 -73 -33 -48 -40 -53 -34 -29 11 49 44 93 101 137 73 54 115 69
195 65 56 -2 82 -10 163 -50z m804 18 c21 -45 14 -73 -28 -115 -70 -70 -222
-131 -325 -129 -39 1 -39 1 -11 9 16 5 41 20 55 33 14 14 59 41 100 62 75 37
166 112 176 146 9 26 20 24 33 -6z m-138 -34 c0 -6 -4 -13 -10 -16 -5 -3 -10
1 -10 9 0 9 5 16 10 16 6 0 10 -4 10 -9z m-71 -32 c-16 -10 -23 -4 -14 10 3 6
11 8 17 5 6 -4 5 -9 -3 -15z m-54 -9 c3 -6 -1 -13 -10 -16 -19 -8 -30 0 -20
15 8 14 22 14 30 1z m-81 -29 c3 -5 -3 -11 -14 -14 -20 -5 -26 3 -13 16 9 10
21 9 27 -2z m-268 -97 c-7 -15 -20 -24 -33 -24 -14 0 -23 -6 -23 -16 0 -12 -6
-15 -24 -10 -15 4 -28 0 -36 -9 -7 -8 -19 -15 -27 -15 -10 0 -12 -6 -8 -20 5
-15 0 -21 -19 -26 -20 -5 -23 -9 -13 -19 10 -11 17 -9 38 11 15 15 32 22 42
19 8 -4 27 1 41 10 20 14 26 14 26 4 1 -10 4 -9 14 3 7 10 16 15 19 11 4 -3 7
12 7 35 0 42 13 56 24 26 15 -39 5 -62 -41 -100 -27 -20 -52 -40 -56 -44 -10
-9 2 -40 17 -40 6 0 29 12 49 26 41 27 52 27 43 -3 -8 -24 -55 -54 -136 -85
-204 -81 -656 -119 -878 -74 -101 20 -121 33 -123 74 -1 15 -3 44 -5 65 -3 34
-2 36 16 27 14 -8 25 -7 40 2 17 11 22 10 30 -2 7 -12 3 -16 -18 -21 -22 -5
-24 -7 -10 -13 11 -5 30 0 51 13 34 21 34 21 59 1 19 -14 28 -16 36 -8 19 19
14 26 -15 30 -16 2 -27 8 -26 16 2 6 -4 12 -12 12 -8 0 -15 -4 -15 -10 0 -16
-40 -12 -46 5 -7 17 -31 20 -36 5 -1 -5 -13 -7 -26 -3 -14 3 -21 11 -18 19 3
7 0 14 -5 16 -6 2 -8 15 -3 32 l7 28 121 -8 c394 -26 768 15 911 99 40 24 40
24 56 4 13 -15 14 -24 5 -43z m-1736 26 c8 -5 11 -10 5 -10 -5 0 -17 5 -25 10
-8 5 -10 10 -5 10 6 0 17 -5 25 -10z m120 -55 c14 -8 21 -14 15 -14 -5 0 -21
6 -35 14 -14 8 -20 14 -15 14 6 0 21 -6 35 -14z m1600 -24 c0 -12 -20 -25 -27
-18 -7 7 6 27 18 27 5 0 9 -4 9 -9z m-62 -23 c-6 -18 -28 -21 -28 -4 0 9 7 16
16 16 9 0 14 -5 12 -12z m-1245 -66 c20 -16 69 -39 109 -51 40 -12 78 -24 84
-26 12 -4 29 -73 20 -83 -10 -10 -144 49 -188 83 -29 21 -48 46 -55 69 -6 20
-10 36 -8 36 1 0 18 -13 38 -28z m-332 -543 c28 -28 9 -42 -43 -33 -49 8 -50
-12 -2 -25 70 -19 93 -62 54 -101 -37 -37 -150 -18 -150 25 0 18 39 30 53 16
13 -13 57 -15 57 -2 0 5 -20 14 -44 20 -49 12 -77 41 -69 72 13 49 105 67 144
28z m260 -8 c23 -24 29 -38 29 -74 0 -38 -5 -49 -31 -71 -92 -77 -222 20 -165
123 32 58 119 69 167 22z m149 -51 l0 -80 50 0 c44 0 50 -3 50 -20 0 -19 -5
-21 -77 -18 l-78 3 -3 84 c-3 100 0 111 33 111 25 0 25 -1 25 -80z m315 55 c0
-17 -8 -20 -47 -23 -60 -4 -67 -29 -11 -34 27 -2 39 -8 41 -20 3 -15 -4 -18
-37 -18 -34 0 -41 -3 -41 -20 0 -17 7 -20 50 -20 43 0 50 -3 50 -20 0 -18 -7
-20 -80 -20 l-80 0 0 100 0 101 78 -3 c69 -3 77 -5 77 -23z m206 5 c21 -17 22
-21 9 -30 -8 -6 -32 -8 -52 -4 -51 8 -50 -12 2 -26 21 -6 46 -17 55 -26 22
-22 19 -60 -7 -78 -45 -31 -148 -11 -148 29 0 18 39 30 53 16 13 -13 57 -15
57 -2 0 5 -20 14 -44 20 -52 13 -69 30 -64 68 6 50 94 72 139 33z m234 -5 c51
-50 18 -135 -52 -135 -26 0 -33 -4 -33 -20 0 -16 -7 -20 -30 -20 l-30 0 0 100
0 100 60 0 c51 0 65 -4 85 -25z m145 -15 l0 -40 40 0 40 0 0 40 c0 36 3 40 25
40 l25 0 0 -100 0 -100 -25 0 c-22 0 -25 4 -25 35 0 34 -1 35 -40 35 -39 0
-40 -1 -40 -35 0 -31 -3 -35 -25 -35 l-25 0 0 100 0 100 25 0 c23 0 25 -4 25
-40z m355 15 c0 -17 -8 -20 -47 -23 -34 -2 -48 -7 -48 -18 0 -10 12 -14 40
-14 33 0 40 -3 40 -20 0 -17 -7 -20 -40 -20 -33 0 -40 -3 -40 -20 0 -17 7 -20
50 -20 43 0 50 -3 50 -20 0 -18 -7 -20 -80 -20 l-80 0 0 93 c0 52 3 97 7 101
4 4 39 5 78 4 62 -3 70 -5 70 -23z m209 4 c29 -23 36 -74 14 -109 -10 -16 -10
-24 0 -40 17 -28 16 -30 -18 -30 -19 0 -34 7 -42 20 -7 11 -18 20 -24 20 -7 0
-14 -9 -17 -20 -3 -14 -14 -20 -31 -20 l-26 0 0 100 0 100 59 0 c44 0 65 -5
85 -21z m244 -1 c-3 -20 -10 -23 -50 -26 -34 -2 -48 -7 -48 -18 0 -10 12 -14
40 -14 33 0 40 -3 40 -19 0 -16 -8 -20 -37 -23 -26 -2 -38 -8 -38 -18 0 -11
13 -16 48 -18 39 -3 47 -6 47 -23 0 -17 -7 -19 -75 -19 l-75 0 0 100 0 100 76
0 c72 0 75 -1 72 -22z"/>
<path d="M842 1490 c0 -14 2 -19 5 -12 2 6 2 18 0 25 -3 6 -5 1 -5 -13z"/>
<path d="M990 1345 c0 -8 4 -15 10 -15 5 0 7 7 4 15 -4 8 -8 15 -10 15 -2 0
-4 -7 -4 -15z"/>
<path d="M1698 1203 c12 -2 32 -2 45 0 12 2 2 4 -23 4 -25 0 -35 -2 -22 -4z"/>
<path d="M1788 1093 c7 -3 16 -2 19 1 4 3 -2 6 -13 5 -11 0 -14 -3 -6 -6z"/>
<path d="M1846 891 c-4 -5 0 -12 6 -14 7 -3 -1 -11 -19 -18 -39 -16 -43 -32
-8 -27 16 2 34 15 46 36 l21 32 -20 0 c-12 0 -23 -4 -26 -9z"/>
<path d="M1763 866 c9 -23 -53 -33 -68 -12 -16 21 -21 20 -45 -4 -21 -21 -70
-28 -70 -9 0 5 -10 3 -22 -5 -25 -18 -68 -21 -68 -6 0 6 -9 10 -21 10 -11 0
-18 -4 -14 -9 7 -12 -28 -23 -49 -15 -9 3 -13 10 -10 15 3 5 -4 9 -15 9 -12 0
-20 -6 -18 -12 2 -15 -46 -13 -51 2 -5 15 -32 12 -32 -4 0 -16 -51 -10 -62 8
-4 6 -10 7 -14 3 -10 -10 26 -47 46 -47 9 0 21 5 28 12 8 8 15 8 26 -2 21 -17
10 -32 -17 -24 -19 6 -20 5 -8 -9 10 -13 18 -14 33 -6 14 8 28 7 49 -1 25 -11
32 -10 49 5 17 15 21 16 41 2 22 -16 49 -13 49 5 0 6 -11 8 -25 6 -16 -4 -25
-1 -25 8 0 31 23 29 101 -12 23 -12 28 -12 39 1 11 13 8 15 -14 15 -14 0 -26
4 -26 9 0 19 21 23 51 11 27 -11 32 -10 53 9 22 21 26 22 48 7 22 -14 26 -14
56 4 34 21 43 50 16 50 -10 0 -14 -6 -11 -14z m-374 -87 c-33 -8 -46 1 -24 17
15 11 21 11 33 2 12 -11 11 -14 -9 -19z"/>
<path d="M1670 800 c-22 -6 -23 -8 -7 -15 12 -5 24 -2 35 9 17 17 12 18 -28 6z"/>
<path d="M1765 800 c4 -6 11 -8 16 -5 14 9 11 15 -7 15 -8 0 -12 -5 -9 -10z"/>
<path d="M1125 780 c4 -6 11 -8 16 -5 14 9 11 15 -7 15 -8 0 -12 -5 -9 -10z"/>
<path d="M1197 769 c8 -8 16 -8 30 0 16 9 14 10 -11 11 -22 0 -27 -3 -19 -11z"/>
<path d="M582 268 c-7 -7 -12 -24 -12 -38 0 -34 17 -50 52 -50 20 0 32 7 40
25 22 48 -43 100 -80 63z"/>
<path d="M1510 246 c0 -22 5 -36 13 -36 42 1 51 62 10 68 -20 3 -23 -1 -23
-32z"/>
<path d="M2220 246 c0 -22 5 -36 13 -36 42 1 51 62 10 68 -20 3 -23 -1 -23
-32z"/>
</g>
</svg>
